<svg version="1.1" viewBox="0 0 44 44" width="44" height="44" xmlns="http://www.w3.org/2000/svg">
  <defs>
    <radialGradient id="bgGrad" cx="40%" cy="40%" r="65%">
      <stop offset="0%" stop-color="#1b3fa0"/>
      <stop offset="100%" stop-color="#050e32"/>
    </radialGradient>
    <linearGradient id="triGrad" x1="22" y1="3" x2="22" y2="31" gradientUnits="userSpaceOnUse">
      <stop offset="0%" stop-color="#a8eaf8"/>
      <stop offset="40%" stop-color="#4dbde8"/>
      <stop offset="100%" stop-color="#1456b0"/>
    </linearGradient>
    <clipPath id="circ">
      <circle cx="22" cy="22" r="21"/>
    </clipPath>
  </defs>
  <circle cx="22" cy="22" r="21" fill="url(#bgGrad)"/>
  <polygon points="22,3 37,31 22,25 7,31" fill="url(#triGrad)" clip-path="url(#circ)"/>
  <ellipse cx="22" cy="29" rx="11" ry="5" fill="#050e32" opacity="0.65" clip-path="url(#circ)"/>
  <circle cx="22" cy="20" r="5.2" fill="#050e32" opacity="0.55"/>
  <circle cx="22" cy="19.5" r="4" fill="none" stroke="white" stroke-width="1.4"/>
  <circle cx="22" cy="19.5" r="1.6" fill="white"/>
  <path d="M22 23.5 L22 26.5" stroke="white" stroke-width="1.4" stroke-linecap="round"/>
  <circle cx="33.5" cy="9" r="0.7" fill="#6dd5f5" opacity="0.75"/>
  <circle cx="35.5" cy="12" r="0.65" fill="#6dd5f5" opacity="0.65"/>
  <circle cx="36.5" cy="15" r="0.65" fill="#6dd5f5" opacity="0.6"/>
  <circle cx="36" cy="18" r="0.6" fill="#6dd5f5" opacity="0.55"/>
  <circle cx="35" cy="21" r="0.6" fill="#6dd5f5" opacity="0.5"/>
  <circle cx="36.5" cy="24" r="0.55" fill="#6dd5f5" opacity="0.45"/>
  <circle cx="35" cy="27" r="0.5" fill="#6dd5f5" opacity="0.4"/>
  <circle cx="5" cy="14" r="0.5" fill="#6dd5f5" opacity="0.5"/>
  <circle cx="8" cy="9" r="0.4" fill="#6dd5f5" opacity="0.45"/>
  <text x="22" y="35.5" font-family="Arial Black,Arial,sans-serif" font-size="6" font-weight="900" fill="white" text-anchor="middle" letter-spacing="0.8">MAP</text>
  <text x="22" y="40.5" font-family="Arial,sans-serif" font-size="3.6" font-weight="600" fill="white" text-anchor="middle" letter-spacing="0.4">VIỆT NAM</text>
</svg>